<?xml version="1.0" standalone="no"?>
<!DOCTYPE svg PUBLIC "-//W3C//DTD SVG 20010904//EN"
 "http://www.w3.org/TR/2001/REC-SVG-20010904/DTD/svg10.dtd">
<svg version="1.0" xmlns="http://www.w3.org/2000/svg"
 width="750.000000pt" height="750.000000pt" viewBox="0 0 750.000000 750.000000"
 preserveAspectRatio="xMidYMid meet">
<metadata>
Created by potrace 1.14, written by Peter Selinger 2001-2017
</metadata>
<g transform="translate(0.000000,750.000000) scale(0.100000,-0.100000)"
fill="#000000" stroke="none">
<path d="M3013 4645 c-29 -43 -32 -156 -7 -213 30 -68 37 -82 42 -77 3 2 -1
11 -8 20 -8 10 -13 50 -13 118 -1 70 -2 81 -4 35 -2 -41 -8 -68 -15 -68 -14 0
-4 150 11 159 9 6 27 61 20 61 -2 0 -14 -16 -26 -35z"/>
<path d="M2461 4624 c0 -11 3 -14 6 -6 3 7 2 16 -1 19 -3 4 -6 -2 -5 -13z"/>
<path d="M3215 4609 c-4 -6 -5 -12 -2 -15 2 -3 7 2 10 11 7 17 1 20 -8 4z"/>
<path d="M3162 4450 c0 -14 2 -19 5 -12 2 6 2 18 0 25 -3 6 -5 1 -5 -13z"/>
<path d="M3160 4334 c0 -10 5 -26 10 -34 8 -11 9 -7 4 15 -8 37 -14 45 -14 19z"/>
<path d="M1712 2400 c-44 -18 -49 -98 -7 -114 57 -22 115 6 115 55 0 30 -9 43
-37 58 -25 13 -40 13 -71 1z"/>
<path d="M2343 2400 c-29 -12 -45 -44 -37 -75 18 -71 144 -57 144 16 0 30 -9
43 -37 58 -25 13 -40 13 -70 1z"/>
<path d="M5130 2401 c-29 -8 -52 -48 -44 -76 9 -30 34 -45 74 -45 45 0 70 25
70 69 0 27 -5 34 -35 47 -19 7 -36 14 -37 13 -2 -1 -14 -4 -28 -8z"/>
<path d="M1280 2070 l0 -260 60 0 60 0 0 105 0 104 83 3 82 3 3 48 3 47 -85 0
-86 0 0 60 0 60 110 0 110 0 0 45 0 45 -170 0 -170 0 0 -260z"/>
<path d="M3030 2275 c0 -54 0 -55 -30 -55 -29 0 -30 -1 -30 -50 0 -49 1 -50
30 -50 l30 0 0 -102 c0 -158 29 -197 153 -206 l57 -4 0 56 0 56 -39 0 c-47 0
-51 10 -51 123 l0 77 45 0 45 0 0 50 0 50 -45 0 -45 0 0 55 0 55 -60 0 -60 0
0 -55z"/>
<path d="M1975 2219 c-17 -4 -44 -22 -60 -39 -23 -24 -28 -38 -28 -76 0 -40 4
-51 30 -74 17 -16 54 -33 84 -40 86 -20 119 -36 119 -59 0 -47 -91 -51 -112
-5 -10 21 -18 24 -70 24 -57 0 -59 -1 -53 -22 21 -72 77 -111 164 -116 123 -7
181 32 181 120 0 59 -36 94 -116 114 -101 25 -115 34 -112 63 3 22 9 26 39 29
29 2 41 -2 57 -22 17 -22 28 -26 76 -26 l56 0 -11 28 c-33 87 -140 132 -244
101z"/>
<path d="M2647 2217 c-52 -17 -104 -61 -123 -105 -9 -20 -17 -64 -17 -97 -1
-119 70 -196 188 -203 77 -5 126 10 175 54 97 87 73 277 -42 336 -46 24 -132
31 -181 15z m128 -122 c20 -20 25 -34 25 -78 0 -67 -30 -102 -87 -100 -49 1
-75 30 -80 90 -5 42 -1 53 22 81 34 41 84 44 120 7z"/>
<path d="M3389 2202 c-42 -22 -58 -38 -79 -77 -44 -86 -27 -210 37 -267 55
-50 173 -64 242 -28 37 18 91 72 91 90 0 5 3 15 6 24 5 14 -3 16 -56 16 -54 0
-66 -3 -86 -25 -48 -51 -134 -24 -134 42 0 23 1 23 140 23 161 0 159 -1 140
81 -31 127 -177 186 -301 121z m158 -94 c13 -12 23 -30 23 -40 0 -16 -9 -18
-80 -18 -72 0 -80 2 -80 19 0 27 47 61 83 61 18 0 41 -9 54 -22z"/>
<path d="M3972 2215 c-17 -8 -43 -26 -57 -41 l-25 -27 0 37 0 36 -60 0 -60 0
0 -205 0 -205 60 0 60 0 0 115 c0 110 1 117 25 140 18 19 35 25 70 25 l45 0 0
70 c0 77 -3 79 -58 55z"/>
<path d="M4181 2212 c-109 -55 -140 -220 -65 -335 30 -46 75 -67 144 -67 43 0
55 5 90 36 l40 36 0 -36 0 -36 60 0 60 0 0 205 0 205 -60 0 -60 0 0 -30 c0
-35 -10 -38 -28 -9 -29 46 -121 62 -181 31z m166 -107 c45 -31 48 -121 7 -166
-17 -19 -75 -26 -109 -13 -23 9 -45 57 -45 99 0 73 88 121 147 80z"/>
<path d="M4794 2216 c-17 -8 -40 -26 -52 -41 l-22 -28 0 37 0 36 -60 0 -60 0
0 -305 0 -305 60 0 60 0 0 137 c0 127 1 136 16 115 23 -33 67 -52 119 -52 106
0 175 83 175 211 0 89 -39 160 -104 190 -48 22 -89 23 -132 5z m80 -122 c21
-21 26 -36 26 -74 0 -68 -27 -100 -85 -100 -61 0 -86 24 -93 88 -4 47 -2 54
26 82 40 40 88 41 126 4z"/>
<path d="M5405 2216 c-38 -17 -78 -61 -96 -106 -20 -51 -16 -146 8 -201 31
-68 73 -94 155 -94 63 0 69 2 102 34 l36 35 0 -37 0 -37 60 0 60 0 0 205 0
205 -60 0 -60 0 0 -37 -1 -38 -21 29 c-39 52 -120 70 -183 42z m162 -111 c45
-31 48 -121 7 -166 -17 -19 -75 -26 -109 -13 -38 15 -57 97 -34 148 20 44 94
61 136 31z"/>
<path d="M1690 2015 l0 -205 60 0 60 0 0 205 0 205 -60 0 -60 0 0 -205z"/>
<path d="M2320 2015 l0 -205 60 0 60 0 0 205 0 205 -60 0 -60 0 0 -205z"/>
<path d="M5100 2015 l0 -205 60 0 60 0 0 205 0 205 -60 0 -60 0 0 -205z"/>
<path d="M5976 2188 c4 -13 40 -102 81 -198 l75 -175 -40 -97 -40 -98 27 0
c27 0 31 7 139 278 61 152 114 285 118 295 6 16 2 18 -21 15 -28 -3 -39 -27
-149 -313 -6 -17 -12 -10 -33 40 -120 289 -113 275 -140 275 -21 0 -23 -3 -17
-22z"/>
<path d="M5693 1615 c-55 -31 -72 -45 -73 -62 0 -21 2 -21 70 13 69 34 85 49
78 76 -2 9 -25 1 -75 -27z"/>
<path d="M3582 1634 c-26 -18 -28 -42 -4 -60 24 -19 46 -17 65 4 22 24 21 27
-5 52 -26 24 -28 24 -56 4z"/>
<path d="M3937 1632 c-24 -26 -21 -46 7 -61 52 -28 100 25 56 61 -28 23 -43
23 -63 0z"/>
<path d="M5307 1632 c-22 -24 -21 -41 1 -58 24 -19 46 -17 67 6 17 18 17 21 1
45 -19 30 -46 32 -69 7z"/>
<path d="M2160 1360 l0 -260 40 0 40 0 0 130 c0 139 8 171 47 189 55 25 132 7
152 -36 6 -13 11 -80 11 -153 l0 -130 35 0 35 0 0 137 c0 116 -3 143 -20 178
-25 52 -64 75 -129 75 -46 0 -55 -4 -91 -40 l-40 -40 0 105 0 105 -40 0 -40 0
0 -260z"/>
<path d="M3100 1360 l0 -260 40 0 40 0 0 48 c1 40 2 44 12 27 62 -109 222 -96
278 22 30 65 26 164 -10 216 -69 100 -211 101 -268 2 -9 -16 -11 2 -12 93 l0
112 -40 0 -40 0 0 -260z m255 56 c42 -18 65 -61 65 -123 0 -68 -27 -109 -82
-123 -92 -25 -158 26 -158 123 0 107 79 163 175 123z"/>
<path d="M3750 1360 l0 -260 40 0 40 0 0 260 0 260 -40 0 -40 0 0 -260z"/>
<path d="M1290 1351 l0 -251 41 0 40 0 -3 100 -3 100 35 0 c32 -1 38 -6 71
-58 20 -31 47 -76 60 -99 22 -39 28 -43 62 -43 28 0 36 3 31 13 -4 6 -32 51
-62 100 -30 48 -53 89 -51 90 2 2 23 11 46 21 34 15 46 28 63 67 17 41 19 56
11 87 -25 92 -66 114 -223 120 l-118 4 0 -251z m250 157 c22 -24 27 -86 10
-118 -13 -24 -62 -40 -126 -40 l-53 0 -3 90 -3 90 77 0 c67 0 80 -3 98 -22z"/>
<path d="M4132 1535 c3 -43 2 -45 -24 -45 -24 0 -28 -4 -28 -30 0 -25 4 -30
25 -30 l25 0 0 -110 c0 -166 22 -205 121 -217 l49 -6 0 36 c0 35 -1 36 -42 39
l-43 3 -3 128 -3 127 46 0 c43 0 45 1 45 30 0 29 -1 30 -48 30 l-47 0 3 45 4
45 -42 0 -42 0 4 -45z"/>
<path d="M1797 1472 c-44 -20 -93 -86 -103 -140 -8 -42 8 -112 36 -157 24 -39
95 -75 149 -75 70 0 138 37 166 91 16 31 11 39 -23 39 -16 0 -35 -12 -52 -32
-22 -26 -35 -32 -81 -36 -48 -4 -59 -1 -83 19 -15 13 -31 41 -35 62 l-9 37
154 0 154 0 0 30 c0 36 -24 96 -48 123 -49 55 -150 72 -225 39z m153 -57 c18
-9 32 -26 35 -43 15 -68 25 -62 -104 -62 l-118 0 6 33 c7 40 20 60 46 75 29
16 101 15 135 -3z"/>
<path d="M2695 1471 c-91 -56 -119 -176 -65 -281 61 -119 229 -120 282 0 4 8
7 -9 7 -37 l1 -53 40 0 40 0 0 195 0 195 -40 0 -40 0 0 -52 0 -53 -17 33 c-32
65 -144 93 -208 53z m161 -56 c43 -18 64 -63 64 -136 0 -44 -4 -55 -31 -80
-37 -35 -85 -45 -134 -29 -50 17 -75 60 -75 130 0 64 17 95 64 116 41 17 69
17 112 -1z"/>
<path d="M3570 1295 l0 -195 40 0 40 0 0 195 0 195 -40 0 -40 0 0 -195z"/>
<path d="M3930 1295 l0 -195 40 0 40 0 0 195 0 195 -40 0 -40 0 0 -195z"/>
<path d="M4455 1471 c-91 -56 -119 -176 -65 -281 61 -119 229 -120 282 0 4 8
7 -9 7 -37 l1 -53 40 0 40 0 0 195 0 195 -40 0 -40 0 0 -52 0 -53 -17 33 c-32
65 -144 93 -208 53z m161 -56 c43 -18 64 -63 64 -136 0 -44 -4 -55 -31 -80
-37 -35 -85 -45 -134 -29 -50 17 -75 60 -75 130 0 64 17 95 64 116 41 17 69
17 112 -1z"/>
<path d="M4954 1473 c-58 -34 -73 -50 -94 -97 -25 -60 -25 -91 0 -158 33 -88
122 -133 223 -114 43 8 113 71 122 109 7 26 5 27 -29 27 -29 0 -38 -5 -50 -29
-39 -74 -171 -63 -197 16 -17 54 -7 138 21 168 46 49 144 41 177 -16 14 -23
24 -29 50 -29 18 0 33 5 33 10 0 24 -32 71 -66 97 -47 35 -142 43 -190 16z"/>
<path d="M5300 1295 l0 -195 40 0 40 0 0 195 0 195 -40 0 -40 0 0 -195z"/>
<path d="M5568 1470 c-59 -31 -108 -109 -108 -169 0 -36 26 -111 49 -137 46
-56 153 -80 225 -50 156 65 155 295 -1 362 -46 20 -121 17 -165 -6z m147 -55
c82 -40 83 -200 1 -239 -96 -45 -182 18 -177 128 2 27 10 60 18 73 33 50 98
66 158 38z"/>
<path d="M5930 1295 l0 -195 40 0 40 0 0 136 0 136 29 29 c32 32 88 39 134 18
39 -18 47 -50 47 -189 l0 -130 35 0 35 0 0 135 c0 154 -9 188 -62 229 -59 44
-166 27 -193 -32 -15 -34 -25 -26 -25 18 l0 40 -40 0 -40 0 0 -195z"/>
</g>
</svg>
